Love for All and Sharing is the first step to solving all the problems of humanity.

Website I want to share. 
               
   http://www.scenetime.com
 
 
  Credit to EVERYONE for sharing and seeding back
 especially to SCENETIME.COM where i get all my 
 downloads.


 support www.scenetime.com to grow faster.

                             
                                                            
                                                   

.                 ..................................NFO:....................................................................................................................
................................................................................
................................................................................
................................................................................
................................................................................
................................................................................
............................................ MMMMMMMMMMMMM......................
........................................MMM.............. MMM...................
.....................................MM......................MM ................
...................................MM..........................M,...............
.................................M: ............................MM..............
...............................M ...........MMMMMMM..............MM.............
                             M8.        MMMMMMMMMMMMM .          NM             
                           ?M.        MMMMMMMMMMMMMMMMM          .MM            
                          M.       +MMMMMMMMM       .~MM.         MM~           
                        IM       .MMMMMMM7            ,MM        .MMM           
                       M:       DMMMMMM.               MM        DMMM.          
                      M.      .MMMMMMM                  M        MMMMZ          
. .  . .. .  . .. .  M .. .  ?MMMMMM?. .. .  . .. .  . .M .  . ..MMMM$ .. .  . .
                   OI      .MMMMMMM                     M        MMMMZ          
                 .M       ,MMMMMM,                     MM       ,MMMM           
                .M.      ,M.MMMM                       M        MMMMM           
                MNMI.   MM MM+M.                       M       .MMMMM           
...............M....MMMIM.$MOM....................... M....... MMMMMM...........
............. M ......MMM7MMI....................... MD...... MMMMMM. ..........
............ M?......O?M.MM.........................=M...... MMMMMMM M M........
.............M...... M  MM .........................M.......MMMMMMM   M. .M ....
............M.......M,M M..........................M.......8MMMMMM .7.MM,.M ....
...........M ......M MMM.........................MM.......MMMMMMM ...M..MN .....
...........M..... MZ MMM........................MM.......MMMMMMM................
..........M,.....MM+MZM .......................M .......MMMMMMM ................
......... ,......M.M M .......................M ...... MMMMMMM .................
.........M .....M.M M .......................MNMM ....MMMMMMM...................
........ MM.... MM.M.......................M..... MMMMMMMMM~....................
......... NMMMMMMMIM..................... M........MMMMMMM .....................
...........MMMMMMMM.....................M ...... MMMMOMMM.......................
........... MMMMMMM...................~M........MM.MMMM ........................
................MMM................. M,......,MMM.MMMM .........................
...................................MM.......MMM.  MM ...........................
................................. M ......MMMM,M M: ............................
............................... M.......MM IM.MMM...............................
............................. MMM. .. MMMM.M7MM ................................
...............................MMMMMMM~ , M8M,..................................
................................MMMMM: M IM.....................................
................................MMMMMZM.M ......................................
................................. 7MMMM.........................................
....................................,,..........................................
                                                                                
                      MAGNET GRoUP PROUDLY PRESENTS :

General
Complete name                    : Ondine.DVDRip.XVID-MAGNET.cd-1.avi
Format                           : AVI
Format/Info                      : Audio Video Interleave
File size                        : 753 MiB
Duration                         : 51mn 28s
Overall bit rate                 : 2 045 Kbps
Writing application              : VirtualDubMod 1.5.10.2 (build 2540/release)
Writing library                  : Boilsoft AVI tool build 1/release

Video
ID                               : 0
Format                           : MPEG-4 Visual
Format profile                   : Advanced Simple@L5
Format settings, BVOP            : Yes
Format settings, QPel            : No
Format settings, GMC             : No warppoints
Format settings, Matrix          : Default (H.263)
Muxing mode                      : Packed bitstream
Codec ID                         : XVID
Codec ID/Hint                    : XviD
Duration                         : 51mn 28s
Bit rate                         : 1 587 Kbps
Width                            : 720 pixels
Height                           : 384 pixels
Display aspect ratio             : 1.875
Frame rate                       : 25.000 fps
Color space                      : YUV
Chroma subsampling               : 4:2:0
Bit depth                        : 8 bits
Scan type                        : Progressive
Bits/(Pixel*Frame)               : 0.230
Stream size                      : 584 MiB (78%)
Writing library                  : XviD 1.2.1 (UTC 2008-12-04)

Audio
ID                               : 1
Format                           : AC-3
Format/Info                      : Audio Coding 3
Mode extension                   : CM (complete main)
Codec ID                         : 2000
Duration                         : 51mn 28s
Bit rate mode                    : Constant
Bit rate                         : 448 Kbps
Channel(s)                       : 6 channels
Channel positions                : Front: L C R, Side: L R, LFE
Sampling rate                    : 48.0 KHz
Stream size                      : 165 MiB (22%)
Alignment                        : Split accross interleaves
Interleave, duration             : 40 ms (1.00 video frame)
Interleave, preload duration     : 500 ms

General
Complete name                    : Ondine.DVDRip.XVID-MAGNET.cd-2.avi
Format                           : AVI
Format/Info                      : Audio Video Interleave
File size                        : 646 MiB
Duration                         : 51mn 28s
Overall bit rate                 : 1 756 Kbps
Writing application              : VirtualDubMod 1.5.10.2 (build 2540/release)
Writing library                  : Boilsoft AVI tool build 1/release

Video
ID                               : 0
Format                           : MPEG-4 Visual
Format profile                   : Advanced Simple@L5
Format settings, BVOP            : Yes
Format settings, QPel            : No
Format settings, GMC             : No warppoints
Format settings, Matrix          : Default (H.263)
Muxing mode                      : Packed bitstream
Codec ID                         : XVID
Codec ID/Hint                    : XviD
Duration                         : 51mn 28s
Bit rate                         : 1 298 Kbps
Width                            : 720 pixels
Height                           : 384 pixels
Display aspect ratio             : 1.875
Frame rate                       : 25.000 fps
Color space                      : YUV
Chroma subsampling               : 4:2:0
Bit depth                        : 8 bits
Scan type                        : Progressive
Bits/(Pixel*Frame)               : 0.188
Stream size                      : 478 MiB (74%)
Writing library                  : XviD 1.2.1 (UTC 2008-12-04)

Audio
ID                               : 1
Format                           : AC-3
Format/Info                      : Audio Coding 3
Mode extension                   : CM (complete main)
Codec ID                         : 2000
Duration                         : 51mn 28s
Bit rate mode                    : Constant
Bit rate                         : 448 Kbps
Channel(s)                       : 6 channels
Channel positions                : Front: L C R, Side: L R, LFE
Sampling rate                    : 48.0 KHz
Video delay                      : 8ms
Stream size                      : 165 MiB (26%)
Alignment                        : Split accross interleaves
Interleave, duration             : 40 ms (1.00 video frame)
Interleave, preload duration     : 500 ms